<mxfile host="app.diagrams.net" modified="2024-02-17T01:29:09.322Z" agent="Mozilla/5.0 (Macintosh; Intel Mac OS X 10_15_7) AppleWebKit/605.1.15 (KHTML, like Gecko) Version/17.3.1 Safari/605.1.15" version="23.1.5" etag="buyjcHGe5c1mKpfmET0K" type="github">
  <diagram name="Page-1" id="CKEdSDN62ewMVQHA9k3X">
    <mxGraphModel>
      <root>
        <mxCell id="0" />
        <mxCell id="1" parent="0" />
      </root>
    </mxGraphModel>
  </diagram>
</mxfile>
